<?xml version="1.0" standalone="no"?>
<!DOCTYPE svg PUBLIC "-//W3C//DTD SVG 20010904//EN"
 "http://www.w3.org/TR/2001/REC-SVG-20010904/DTD/svg10.dtd">
<svg version="1.0" xmlns="http://www.w3.org/2000/svg"
 width="150.000000pt" height="150.000000pt" viewBox="0 0 150.000000 150.000000"
 preserveAspectRatio="xMidYMid meet">
<metadata>
Created by potrace 1.15, written by Peter Selinger 2001-2017
</metadata>
<g transform="translate(0.000000,150.000000) scale(0.100000,-0.100000)"
fill="#000000" stroke="none">
<path d="M166 1470 c-67 -44 -65 -18 -66 -713 0 -610 1 -629 20 -667 25 -48
64 -70 126 -70 42 0 73 15 313 154 305 176 476 273 565 320 162 86 258 149
287 188 64 89 28 151 -142 249 -174 100 -876 500 -932 532 -61 33 -128 36
-171 7z m162 -117 c37 -20 200 -114 362 -208 162 -94 338 -194 390 -222 145
-77 242 -136 254 -155 8 -14 6 -22 -9 -37 -22 -22 -241 -149 -308 -180 -23
-10 -197 -109 -387 -220 -190 -111 -356 -205 -369 -208 -58 -15 -56 -42 -59
627 -1 444 1 617 9 626 18 22 46 17 117 -23z"/>
</g>
</svg>
